@startuml
Interface Manager
Interface StorageController<T> {
    + T Query()
    + void Add()
    + void Remove()
    + void Update()
}

' MileageChangeBridge
class MileageStatisticsBridge {
    + void UpdateMileageBasedOnStatistics()
}
MileageStatisticsBridge --- MileageManager : use

' Statistics

class StatisticsComputingData {
    + Dictionary<K, V> params
}

class StatisticsComputingTask {
    + StatisticsComputingData statisticsComputingData
}

StatisticsComputingTask "1" --- "1" StatisticsComputingData : contains

class StatisticsComputingManager implements Manager {
    + any QueryStatisticsLog()
}
StatisticsComputingManager --- StatisticsLogStorageController : use
StatisticsComputingManager --- User : use

' Todo: StatisticsLog

class StatisticsLogStorageController<T> implements StorageController {}

class StatisticsComputingScheduleHandler {
    - StatisticsComputingTask task
    + void InvokeComputing()
}

StatisticsComputingScheduleHandler "1" --- "1" BookReviewManager : use
StatisticsComputingScheduleHandler "1" o-- "1" StatisticsComputingTask : contains
StatisticsComputingScheduleHandler --- MileageStatisticsBridge : use

' StatisticsComputing SubSystem
class StatisticsComputingSubSystem {
    + {static} StatisticsComputingManager statisticsComputing
    + {static} StatisticsLogStorageController statisticsLogStorageController
    + {static} List<StatisticsComputingScheduleHandler> statisticsComputingScheduleHandlers
    + {static} void InterruptComputingTask()
}

StatisticsComputingSubSystem "1" o-- "1" StatisticsComputingManager : contains
StatisticsComputingSubSystem "1" o-- "1" StatisticsLogStorageController : contains
StatisticsComputingSubSystem "1" o-- "N" StatisticsComputingScheduleHandler : contains

@enduml
